<svg fill="#000000" xmlns="http://www.w3.org/2000/svg"  viewBox="0 0 128 128" width="256px" height="256px"><path d="M 64 6 C 45.8 6 31 20.8 31 39 L 31 41 L 29 41 C 16.3 41 6 51.3 6 64 C 6 76.7 16.3 87 29 87 C 30.7 87 32 85.7 32 84 C 32 82.3 30.7 81 29 81 C 19.6 81 12 73.4 12 64 C 12 54.6 19.6 47 29 47 L 34 47 C 35.7 47 37 45.7 37 44 L 37 39 C 37 24.1 49.1 12 64 12 C 78.9 12 91 24.1 91 39 L 91 44 C 91 45.7 92.3 47 94 47 L 99 47 C 108.4 47 116 54.6 116 64 C 116 73.4 108.4 81 99 81 C 97.3 81 96 82.3 96 84 C 96 85.7 97.3 87 99 87 C 111.7 87 122 76.7 122 64 C 122 51.3 111.7 41 99 41 L 97 41 L 97 39 C 97 20.8 82.2 6 64 6 z M 69.429688 50.208984 C 68.765503 50.238403 68.099609 50.542969 67.599609 51.199219 L 43.699219 83.400391 C 42.499219 85.000391 43.699219 87.400391 45.699219 87.400391 L 57.5 87.400391 C 59.1 87.400391 60.300391 88.9 59.900391 90.5 L 55.699219 107.19922 C 55.099219 109.69922 58.2 111.40039 60 109.40039 L 83.900391 82.599609 C 85.300391 80.999609 84.2 78.5 82 78.5 L 70 78.5 C 68.4 78.5 67.299609 77.1 67.599609 75.5 L 72 53.199219 C 72.34375 51.411719 70.890894 50.144263 69.429688 50.208984 z"/></svg>